<svg width="80" height="80" viewBox="0 0 80 80" fill="none" xmlns="http://www.w3.org/2000/svg">
<path d="M40 0.5C61.8152 0.5 79.5 18.1848 79.5 40C79.5 61.8152 61.8152 79.5 40 79.5C18.1848 79.5 0.5 61.8152 0.5 40C0.5 18.1848 18.1848 0.5 40 0.5Z" fill="#DF5325"/>
<path d="M40 0.5C61.8152 0.5 79.5 18.1848 79.5 40C79.5 61.8152 61.8152 79.5 40 79.5C18.1848 79.5 0.5 61.8152 0.5 40C0.5 18.1848 18.1848 0.5 40 0.5Z" stroke="#E8E6E1"/>
<path d="M29.3467 46.4395C30.8218 46.4395 31.5596 46.4395 32.123 46.7266C32.6185 46.9791 33.0219 47.3815 33.2744 47.877C33.5615 48.4404 33.5615 49.1784 33.5615 50.6533V51.6787C33.5615 53.0433 33.5609 53.7256 33.8076 54.2549C34.0694 54.8161 34.5208 55.2675 35.082 55.5293C35.6113 55.7761 36.2943 55.7754 37.6592 55.7754C39.0237 55.7754 39.7061 55.7758 40.2354 56.0225C40.7966 56.2842 41.248 56.7357 41.5098 57.2969C41.7564 57.8262 41.7559 58.5135 41.7559 59.8877C41.7559 61.2624 41.7565 61.9505 41.5098 62.4795C41.248 63.0409 40.7965 63.4912 40.2354 63.7529C39.7061 63.9997 39.0238 64 37.6592 64C36.2942 64 35.6113 63.9997 35.082 63.7529C34.5209 63.4912 34.0693 63.0409 33.8076 62.4795C33.5608 61.9505 33.5615 61.2671 33.5615 59.9023C33.5615 58.5376 33.5611 57.8555 33.3145 57.3262C33.0527 56.765 32.6013 56.3135 32.04 56.0518C31.5108 55.8051 30.8284 55.8047 29.4639 55.8047H28.4102C26.9352 55.8047 26.1972 55.8054 25.6338 55.5186C25.1382 55.266 24.735 54.8628 24.4824 54.3672C24.1953 53.8039 24.1953 53.0658 24.1953 51.5908V50.6533C24.1953 49.1784 24.1953 48.4404 24.4824 47.877C24.735 47.3815 25.1383 46.9791 25.6338 46.7266C26.1972 46.4395 26.9349 46.4395 28.4102 46.4395H29.3467ZM59.9023 38.2441C61.2675 38.2441 61.9501 38.2444 62.4795 38.4912C63.0404 38.7529 63.4912 39.2037 63.7529 39.7646C63.9997 40.2939 64 40.9818 64 42.3564C64 43.7309 63.9997 44.418 63.7529 44.9473C63.4912 45.5085 63.0406 45.9599 62.4795 46.2217C61.9501 46.4685 61.2675 46.4688 59.9023 46.4688C58.538 46.4688 57.8555 46.4683 57.3262 46.7148C56.765 46.9766 56.3135 47.428 56.0518 47.9893C55.805 48.5184 55.8047 49.2008 55.8047 50.5654V51.5908C55.8047 53.0658 55.8045 53.8039 55.5176 54.3672C55.2649 54.8628 54.8618 55.266 54.3662 55.5186C53.8029 55.8053 53.065 55.8047 51.5898 55.8047H50.6543C49.1789 55.8047 48.4404 55.8056 47.877 55.5186C47.3815 55.266 46.9791 54.8627 46.7266 54.3672C46.4395 53.8039 46.4395 53.0658 46.4395 51.5908V50.6533C46.4395 49.1784 46.4395 48.4404 46.7266 47.877C46.979 47.3817 47.3816 46.979 47.877 46.7266C48.4404 46.4395 49.1789 46.4395 50.6543 46.4395H51.708C53.0725 46.4395 53.7552 46.4392 54.2842 46.1924C54.8457 45.9306 55.2959 45.4792 55.5576 44.918C55.8044 44.3888 55.8047 43.7065 55.8047 42.3418C55.8047 40.9769 55.805 40.2939 56.0518 39.7646C56.3135 39.2035 56.7651 38.7529 57.3262 38.4912C57.8555 38.2445 58.5378 38.2441 59.9023 38.2441ZM40 35.9023C41.2269 35.9023 41.8407 35.9026 42.3281 36.0928C43.052 36.3753 43.6247 36.948 43.9072 37.6719C44.0974 38.1594 44.0977 38.7732 44.0977 40C44.0977 41.2269 44.0974 41.8407 43.9072 42.3281C43.6247 43.0521 43.052 43.6247 42.3281 43.9072C41.8407 44.0974 41.2269 44.0977 40 44.0977C38.7731 44.0977 38.1594 44.0974 37.6719 43.9072C36.948 43.6247 36.3754 43.0521 36.0928 42.3281C35.9026 41.8407 35.9023 41.2269 35.9023 40C35.9023 38.7732 35.9026 38.1594 36.0928 37.6719C36.3754 36.948 36.948 36.3753 37.6719 36.0928C38.1594 35.9026 38.7731 35.9023 40 35.9023ZM29.3467 24.1953C30.8218 24.1953 31.5596 24.1953 32.123 24.4824C32.6186 24.735 33.021 25.1382 33.2734 25.6338C33.5605 26.1973 33.5605 26.935 33.5605 28.4102V29.3467C33.5605 30.8218 33.5605 31.5596 33.2734 32.123C33.021 32.6184 32.6184 33.021 32.123 33.2734C31.5596 33.5605 30.8218 33.5605 29.3467 33.5605H28.293C26.928 33.5605 26.2451 33.5608 25.7158 33.8076C25.1546 34.0693 24.7041 34.5209 24.4424 35.082C24.1956 35.6113 24.1953 36.2936 24.1953 37.6582C24.1953 39.0231 24.1951 39.7061 23.9482 40.2354C23.6865 40.7966 23.2351 41.248 22.6738 41.5098C22.1447 41.7564 21.4621 41.7559 20.0977 41.7559C18.7327 41.7559 18.0498 41.7566 17.5205 41.5098C16.9594 41.248 16.5088 40.7965 16.2471 40.2354C16.0003 39.7062 16 39.0189 16 37.6445C16 36.2699 16.0003 35.582 16.2471 35.0527C16.5088 34.4916 16.9594 34.04 17.5205 33.7783C17.9174 33.5932 18.4009 33.5477 19.1934 33.5361L21.002 33.5283C21.7941 33.5167 22.277 33.4701 22.6738 33.2852C23.2351 33.0234 23.6865 32.572 23.9482 32.0107C24.195 31.4815 24.1953 30.7992 24.1953 29.4346V28.4102C24.1953 26.9351 24.1954 26.1973 24.4824 25.6338C24.7349 25.1381 25.1381 24.735 25.6338 24.4824C26.1972 24.1954 26.9351 24.1953 28.4102 24.1953H29.3467ZM42.3564 16C43.7309 16 44.4181 16.0003 44.9473 16.2471C45.5085 16.5087 45.96 16.9594 46.2217 17.5205C46.4068 17.9174 46.4533 18.4009 46.4648 19.1934L46.4727 21.002C46.4842 21.794 46.53 22.277 46.7148 22.6738C46.9765 23.2351 47.428 23.6865 47.9893 23.9482C48.5185 24.195 49.2015 24.1953 50.5664 24.1953H51.5908C53.0661 24.1953 53.8039 24.1953 54.3672 24.4824C54.8628 24.735 55.265 25.1383 55.5176 25.6338C55.8045 26.1973 55.8047 26.935 55.8047 28.4102V29.3467C55.8047 30.8217 55.8046 31.5596 55.5176 32.123C55.265 32.6185 54.8627 33.0219 54.3672 33.2744C53.8039 33.5615 53.0661 33.5605 51.5908 33.5605H50.6543C49.1793 33.5605 48.4413 33.5613 47.8779 33.2744C47.3824 33.0219 46.9791 32.6186 46.7266 32.123C46.4395 31.5596 46.4395 30.8217 46.4395 29.3467V28.293C46.4395 26.928 46.4392 26.2451 46.1924 25.7158C45.9306 25.1546 45.4792 24.704 44.918 24.4424C44.5211 24.2574 44.0383 24.2108 43.2461 24.1992L41.4375 24.1914C40.645 24.1798 40.1615 24.1333 39.7646 23.9482C39.2036 23.6865 38.7529 23.235 38.4912 22.6738C38.2445 22.1446 38.2441 21.4623 38.2441 20.0977C38.2441 18.7327 38.2444 18.0498 38.4912 17.5205C38.7529 16.9596 39.2037 16.5088 39.7646 16.2471C40.2939 16.0003 40.9818 16 42.3564 16Z" fill="white"/>
</svg>
